<?xml version="1.0" encoding="iso-8859-1"?>
<!-- Uploaded to: SVG Repo, www.svgrepo.com, Generator: SVG Repo Mixer Tools -->
<!DOCTYPE svg PUBLIC "-//W3C//DTD SVG 1.1//EN" "http://www.w3.org/Graphics/SVG/1.1/DTD/svg11.dtd">
<svg fill="#000000" version="1.1" id="Capa_1" xmlns="http://www.w3.org/2000/svg" xmlns:xlink="http://www.w3.org/1999/xlink" 
	 width="800px" height="800px" viewBox="0 0 165.26 165.26"
	 xml:space="preserve">
<g>
	<g>
		<path d="M153.829,72.723c-2.879-10.314-11.098-17.819-20.893-17.819c-0.114,0-0.217,0.035-0.328,0.041
			c-1.574-19.6-15.573-34.999-32.797-34.999c-9.693,0-18.334,4.952-24.396,12.693c-3.822-3.689-8.662-5.998-14.003-5.998
			c-11.99,0-21.707,11.168-22.024,25.053c-2.102-0.93-4.361-1.502-6.743-1.502c-10.563,0-19.119,9.978-19.119,22.284
			C6.052,72.477,0,79.531,0,88.235c0,8.702,6.052,15.754,13.527,15.754c0.285,0,11.812,0,28.08,0V88.248
			c0-10.688,8.696-19.38,19.382-19.38h6.595c2.986-6.982,9.934-11.806,17.77-11.806h18.922c10.694,0,19.382,8.689,19.382,19.376
			v24.591c0,1.007-0.203,1.981-0.354,2.955c16.463,0,28.184,0,28.431,0c7.475,0,13.526-7.06,13.526-15.759
			C165.26,80.367,160.297,73.9,153.829,72.723z"/>
		<rect x="59.032" y="88.739" width="26.2" height="2.95"/>
		<rect x="59.032" y="101.867" width="20.183" height="2.948"/>
		<rect x="59.032" y="114.979" width="20.183" height="2.948"/>
		<rect x="59.032" y="128.1" width="26.2" height="2.955"/>
		<path d="M104.274,62.671H85.353c-6.917,0-12.61,5.149-13.574,11.806H60.988c-7.6,0-13.779,6.186-13.779,13.771v43.293
			c0,7.596,6.179,13.773,13.779,13.773h35.417c7.596,0,13.773-6.178,13.773-13.773v-18.14c4.635-2.21,7.863-6.889,7.863-12.36
			V76.444C118.054,68.852,111.881,62.671,104.274,62.671z M106.246,131.547c0,5.423-4.401,9.84-9.833,9.84H60.995
			c-5.437,0-9.842-4.417-9.842-9.84V88.258c0-5.428,4.405-9.841,9.842-9.841h35.418c5.432,0,9.833,4.413,9.833,9.841V131.547z
			 M114.124,101.041c0,3.2-1.565,6.029-3.938,7.825V88.258c0-7.595-6.186-13.775-13.773-13.775H75.724
			c0.915-4.481,4.881-7.871,9.641-7.871h18.92c5.431,0,9.847,4.416,9.847,9.838v24.591H114.124z"/>
	</g>
</g>
</svg>